0
SECTION
2
HEADER
9
$INSUNITS
70
4
9
$ACADVER
1
AC1014
9
$HANDSEED
5
FFFF
0
ENDSEC
0
SECTION
2
TABLES
0
TABLE
2
VPORT
5
8
100
AcDbSymbolTable
0
ENDTAB
0
TABLE
2
LTYPE
5
5
100
AcDbSymbolTable
0
LTYPE
5
14
100
AcDbSymbolTableRecord
100
AcDbLinetypeTableRecord
2
BYBLOCK
70
0
0
LTYPE
5
15
100
AcDbSymbolTableRecord
100
AcDbLinetypeTableRecord
2
BYLAYER
70
0
0
ENDTAB
0
TABLE
2
LAYER
5
2
100
AcDbSymbolTable
70
2
0
LAYER
5
50
100
AcDbSymbolTableRecord
100
AcDbLayerTableRecord
2
0
70
0
6
CONTINUOUS
0
ENDTAB
0
TABLE
2
STYLE
5
3
100
AcDbSymbolTable
70
1
0
STYLE
5
11
100
AcDbSymbolTableRecord
100
AcDbTextStyleTableRecord
2
STANDARD
70
0
0
ENDTAB
0
TABLE
2
VIEW
5
6
100
AcDbSymbolTable
70
0
0
ENDTAB
0
TABLE
2
UCS
5
7
100
AcDbSymbolTable
70
0
0
ENDTAB
0
TABLE
2
APPID
5
9
100
AcDbSymbolTable
70
2
0
APPID
5
12
100
AcDbSymbolTableRecord
100
AcDbRegAppTableRecord
2
ACAD
70
0
0
ENDTAB
0
TABLE
2
DIMSTYLE
5
A
100
AcDbSymbolTable
70
1
0
ENDTAB
0
TABLE
2
BLOCK_RECORD
5
1
100
AcDbSymbolTable
70
1
0
BLOCK_RECORD
5
1F
100
AcDbSymbolTableRecord
100
AcDbBlockTableRecord
2
*MODEL_SPACE
0
BLOCK_RECORD
5
1B
100
AcDbSymbolTableRecord
100
AcDbBlockTableRecord
2
*PAPER_SPACE
0
ENDTAB
0
ENDSEC
0
SECTION
2
BLOCKS
0
BLOCK
5
20
100
AcDbEntity
100
AcDbBlockBegin
2
*MODEL_SPACE
0
ENDBLK
5
21
100
AcDbEntity
100
AcDbBlockEnd
0
BLOCK
5
1C
100
AcDbEntity
100
AcDbBlockBegin
2
*PAPER_SPACE
0
ENDBLK
5
1D
100
AcDbEntity
100
AcDbBlockEnd
0
ENDSEC
0
SECTION
2
ENTITIES
0
LWPOLYLINE
5
100
100
AcDbEntity
8
0
100
AcDbPolyline
90
29
70
1
43
0.0
10
-13.70710678118634
20
3.8058091122995479
42
0.19891236737965579
10
-13.999999999999794
20
3.0987023311130018
10
-13.999999999999794
20
-14.628593293367672
42
0.4142135623730937
10
-12.999999999999794
20
-15.628593293367658
10
-5.9644131465367245
20
-15.628593293367661
42
0.41421356237309309
10
-4.9644131465367236
20
-14.628593293367665
10
-4.9644131465367227
20
-12.628593293367661
10
5.0355868534632773
20
-12.628593293367667
10
5.0355868534632808
20
-14.628593293367665
42
0.41421356237309825
10
6.0355868534632862
20
-15.628593293367668
10
20.035586853463272
20
-15.628593293367663
42
0.4142135623730937
10
21.035586853463279
20
-14.628593293367665
10
21.035586853463279
20
-12.628593293367661
10
31.035586853463279
20
-12.628593293367667
10
31.035586853463279
20
-14.628593293367667
42
0.41421356237309243
10
32.035586853463272
20
-15.628593293367668
10
46.035586853463286
20
-15.628593293367668
42
0.41421356237309503
10
47.035586853463286
20
-14.628593293367667
10
47.035586853463286
20
-12.628593293367661
10
57.035586853463286
20
-12.628593293367667
10
57.035586853463286
20
-14.628593293367672
42
0.4142135623730957
10
58.035586853463279
20
-15.62859329336767
10
67.300000000000026
20
-15.628593293367668
42
0.41421356237309503
10
68.300000000000011
20
-14.628593293367674
10
68.300000000000011
20
12.371406706632349
42
0.41421356237310347
10
67.300000000000011
20
13.371406706632348
10
-9.0999999999997971
20
13.371406706632349
42
0.41421356237309503
10
-10.099999999999794
20
12.371406706632346
10
-10.099999999999794
20
7.4129158934860939
0
LWPOLYLINE
5
101
100
AcDbEntity
8
0
100
AcDbPolyline
90
4
70
1
43
0.0
10
19.01856770494442
20
5.8899741437674678
10
33.018567704944417
20
5.8899741437674669
10
33.018567704944417
20
-8.1100258562325358
10
19.01856770494442
20
-8.1100258562325358
0
LWPOLYLINE
5
102
100
AcDbEntity
8
0
100
AcDbPolyline
90
4
70
1
43
0.0
10
45.018567704944417
20
5.889974143767466
10
59.018567704944417
20
5.8899741437674642
10
59.018567704944417
20
-8.1100258562325394
10
45.018567704944417
20
-8.1100258562325358
0
LWPOLYLINE
5
103
100
AcDbEntity
8
0
100
AcDbPolyline
90
4
70
1
43
0.0
10
-6.9814322950555816
20
-8.110025856232534
10
-6.9814322950555816
20
5.8899741437674704
10
7.0185677049444175
20
5.8899741437674678
10
7.0185677049444175
20
-8.1100258562325358
0
ENDSEC
0
SECTION
2
OBJECTS
0
DICTIONARY
5
C
100
AcDbDictionary
3
ACAD_GROUP
350
D
3
ACAD_MLINESTYLE
350
17
0
DICTIONARY
5
D
100
AcDbDictionary
0
DICTIONARY
5
1A
330
C
100
AcDbDictionary
0
DICTIONARY
5
17
100
AcDbDictionary
0
ENDSEC
0
EOF
